<?xml version="1.0" encoding="utf-8"?>
<!DOCTYPE svg PUBLIC "-//W3C//DTD SVG 1.0//EN" "http://www.w3.org/TR/2001/REC-SVG-20010904/DTD/svg10.dtd">
<svg version="1.0" xmlns="http://www.w3.org/2000/svg" width="351px" height="351px" viewBox="0 0 351 351" preserveAspectRatio="xMidYMid meet">
 <g fill="#000000">
  <path d="M16.90 337.01 c-1.03 -0.79 -1.47 -2.16 -1.47 -4.39 l0 -1.85 -1.89 0 c-3.80 0 -5.31 -1.30 -5.31 -4.63 0 -1.75 0.17 -2.37 1.23 -4.11 1.71 -2.85 2.26 -4.35 4.42 -12.27 2.57 -9.36 3.43 -13.71 4.25 -20.98 2.78 -24.71 3.15 -52.14 1.06 -77.12 -1.99 -23.45 -3.19 -34.48 -4.80 -44.39 -0.58 -3.63 -0.62 -5.83 -0.55 -27.76 0.10 -25.13 0.07 -24.61 1.95 -39.59 2.02 -16.25 6.03 -32.22 9.94 -39.56 5.07 -9.53 11.72 -15.90 18.78 -18 1.03 -0.31 2.30 -0.55 2.85 -0.55 0.96 0 0.96 0 0.96 -2.30 0 -5.69 2.91 -11.11 9.70 -18.17 3.70 -3.84 6.31 -5.55 10.39 -6.92 5.04 -1.68 10.35 -2.47 18.13 -2.67 12.72 -0.34 20.19 0.72 34.11 4.76 l4.97 1.44 11.83 -0.07 c11.31 -0.10 11.96 -0.14 14.74 -0.93 4.15 -1.20 6.62 -1.51 12.85 -1.78 11.52 -0.45 20.57 1.34 29.34 5.76 9.70 4.87 13.16 8.40 18.03 18.48 5.21 10.76 9.56 17.82 13.88 22.45 2.64 2.85 5.69 4.63 7.82 4.63 1.68 0 5.66 -1.99 7.27 -3.67 l1.30 -1.34 -3.43 0.14 c-2.98 0.14 -3.60 0.07 -4.97 -0.62 -2.26 -1.10 -3.29 -2.81 -3.50 -5.76 -0.27 -3.87 0.17 -4.87 4.15 -8.98 4.04 -4.15 5.76 -6.55 8.33 -11.65 2.13 -4.32 3.94 -9.08 5.93 -15.60 2.57 -8.54 3.36 -10.01 6.31 -11.59 1.17 -0.62 1.95 -0.75 4.83 -0.75 3.02 0 3.60 0.10 4.76 0.82 1.54 0.96 2.91 2.98 3.98 5.96 0.45 1.17 0.89 2.26 1.03 2.40 0.14 0.17 0.86 0 1.58 -0.38 2.43 -1.23 7.27 -2.78 10.93 -3.50 5.18 -0.99 14.88 -0.99 19.81 0.03 12.79 2.57 24.68 11.76 30.75 23.62 1.82 3.60 3.39 8.47 4.01 12.51 0.69 4.63 0.41 13.75 -0.58 18.41 -0.72 3.46 -2.37 8.43 -3.46 10.63 l-0.65 1.27 1.44 0.38 c2.88 0.72 5 1.78 6.17 3.02 2.06 2.16 2.40 3.15 2.26 6.75 -0.10 2.91 -0.21 3.32 -1.13 4.66 -1.82 2.57 -3.56 3.46 -13.27 6.62 -6.48 2.13 -10.39 3.60 -13.92 5.31 -6.17 3.05 -7.34 3.84 -11.55 7.95 -1.89 1.85 -3.87 3.50 -4.39 3.70 -1.27 0.48 -6.75 0.48 -8.02 0 -1.17 -0.45 -2.74 -1.89 -3.39 -3.12 -0.31 -0.58 -0.48 -2.02 -0.48 -3.91 l0 -3.02 -1.23 1.20 c-1.92 1.85 -2.67 3.56 -2.71 6.14 0 2.67 0.89 4.49 3.50 6.89 4.32 4.04 8.88 6.92 18.89 11.93 12.34 6.17 15.97 9.12 20.53 16.49 5.52 8.98 7.85 15.22 8.67 23.48 0.65 6 0.27 11.07 -1.34 19.20 -1.61 8.12 -2.09 12.58 -2.09 19.33 0 5.90 0.38 8.40 2.91 18.72 3.19 12.89 4.15 20.87 3.84 31.36 -0.38 13.09 -2.85 20.50 -9.01 27.04 -5.62 6 -11.48 8.95 -18.75 9.49 l-2.98 0.24 0 1.27 c0 2.95 -2.57 8.77 -5.31 11.96 -9.22 10.80 -31.47 17.93 -63.24 20.26 -24.75 1.82 -46.17 1.23 -71.37 -1.89 -25.37 -3.12 -44.32 -4.15 -71.06 -3.84 -17.21 0.21 -24.71 0.62 -35.99 1.99 -13.88 1.68 -27.83 5.04 -34.17 8.23 -2.37 1.20 -2.95 1.34 -5.14 1.34 -1.85 0 -2.71 -0.17 -3.26 -0.62z m5.66 -5.86 c5.42 -2.74 22.04 -6.62 34.79 -8.09 31.23 -3.56 73.63 -2.81 112.67 2.06 16.04 1.99 25.30 2.57 41.17 2.57 20.16 0 37.12 -1.47 51.59 -4.46 16.08 -3.36 28.35 -8.98 33.73 -15.46 1.92 -2.33 4.35 -7.03 4.66 -9.08 0.21 -1.37 0.17 -1.41 -4.28 -6.55 -6.79 -7.85 -13.27 -13.40 -19.88 -17.14 -1.61 -0.89 -4.25 -2.64 -5.86 -3.80 -5.83 -4.35 -13.09 -8.50 -26.22 -14.98 -17.24 -8.50 -27.59 -12.31 -38.15 -14.05 l-3.56 -0.62 -1.85 1.85 c-1.10 1.10 -2.40 2.91 -3.26 4.49 -1.61 3.08 -2.57 4.15 -4.49 4.70 -1.13 0.34 -1.44 0.65 -2.02 2.02 -1.17 2.71 -1.95 5.52 -3.05 10.69 -1.58 7.75 -2.06 8.88 -6.96 16.62 -3.15 4.97 -6.38 9.25 -10.42 13.95 -1.85 2.09 -3.12 3.74 -2.85 3.63 11.62 -4.66 19.78 -7.44 24.89 -8.47 9.39 -1.92 26.84 -2.30 36.81 -0.75 6.10 0.93 11.31 1.99 11.89 2.47 0.55 0.48 0.58 3.46 0.03 4.01 -0.65 0.65 -3.46 0.48 -8.16 -0.41 -7.78 -1.54 -12.44 -2.02 -19.54 -1.99 -9.67 0 -16.97 0.93 -23.89 3.02 -6 1.82 -24.61 8.95 -32.32 12.44 -8.54 3.80 -14.26 4.97 -24.68 4.97 -6.27 0.03 -6.92 -0.03 -10.45 -0.96 -6.62 -1.71 -15.25 -5.42 -19.71 -8.43 -3.32 -2.26 -5.45 -4.42 -10.83 -11.21 -6 -7.51 -4.90 -6.92 -10.04 -5.35 -3.19 0.99 -6.34 2.91 -7.71 4.73 -0.51 0.65 -1.92 3.08 -3.15 5.38 -2.47 4.59 -3.29 5.86 -5.42 8.09 -2.74 2.91 -5.24 3.67 -14.74 4.35 -6.20 0.45 -6.99 0.58 -8.91 1.47 -2.67 1.27 -5.55 3.91 -8.02 7.37 -2.26 3.15 -3.53 4.01 -6.07 4.01 -1.68 0 -1.78 0.07 -4.01 2.33 -1.27 1.27 -2.54 2.88 -2.85 3.56 -0.79 1.95 -0.75 1.95 1.13 0.99z m-5.93 -6.17 c0.75 -0.34 2.40 -1.71 3.63 -2.98 2.19 -2.26 2.30 -2.43 2.43 -4.35 0.21 -2.50 0.75 -3.22 4.46 -6.07 1.61 -1.23 3.74 -2.91 4.73 -3.77 1.78 -1.54 1.82 -1.65 2.43 -4.63 0.38 -1.71 0.82 -5.48 0.99 -8.40 0.45 -7.10 1.27 -10.11 3.70 -13.30 1.13 -1.47 5.52 -4.35 10.04 -6.55 2.61 -1.23 4.08 -2.19 5.04 -3.26 2.50 -2.74 4.66 -7.99 4.46 -10.90 -0.10 -1.41 -0.17 -1.47 -4.90 -5.04 -2.61 -2.02 -6.65 -5.48 -8.91 -7.75 -3.39 -3.36 -4.35 -4.56 -5.28 -6.51 -0.62 -1.30 -2.13 -4.39 -3.32 -6.86 -2.37 -4.83 -3.63 -8.74 -4.28 -13.20 -0.55 -3.91 -0.21 -12.82 0.69 -17.69 1.30 -6.92 1.95 -8.88 7.82 -22.76 3.80 -8.95 8.88 -22.76 10.01 -27.08 1.30 -5.07 1.89 -11.38 1.85 -20.40 0 -7.75 -0.51 -12.79 -1.99 -20.02 -0.93 -4.63 -1.10 -7.20 -0.45 -7.85 0.65 -0.65 3.50 -0.51 4.15 0.21 1.23 1.34 3.08 13.78 3.50 23.38 0.21 5.24 -0.27 17.34 -0.89 21.83 -0.79 5.79 -2.91 12.44 -8.88 27.52 l-0.72 1.85 0.79 -0.65 c0.45 -0.38 1.78 -1.61 3.02 -2.74 9.05 -8.33 17.10 -13.68 23.99 -15.87 1.23 -0.41 4.01 -1.06 6.17 -1.44 2.16 -0.41 4.73 -0.96 5.66 -1.27 4.04 -1.27 8.77 -4.32 15.22 -9.84 l3.22 -2.74 -0.21 -3.80 c-0.31 -6.68 -2.47 -13.30 -9.80 -30.06 -1.71 -3.91 -4.18 -9.25 -5.52 -11.93 -3.46 -6.92 -9.94 -17.48 -13.99 -22.76 -0.86 -1.10 -2.40 -3.56 -3.43 -5.48 -3.74 -7.03 -7.40 -11.31 -15.01 -17.72 -2.71 -2.26 -5.52 -4.83 -6.20 -5.69 -1.17 -1.41 -1.34 -1.51 -2.47 -1.30 -3.56 0.62 -8.95 4.35 -12.48 8.67 -5.59 6.82 -9.12 15.25 -12.07 28.96 -1.75 8.12 -3.91 23.72 -4.59 33.32 -0.41 5.62 -0.41 42.88 0 44.90 0.62 3.05 2.37 16.04 2.71 20.05 0.21 2.37 0.75 8.36 1.20 13.37 1.89 20.50 2.57 33.04 2.57 47.65 0 14.53 -0.89 31.60 -2.40 46.14 -0.89 8.43 -1.37 11 -3.29 18.13 -3.02 11.24 -3.67 13.37 -4.56 15.08 -0.48 0.96 -0.93 1.82 -0.99 1.99 -0.21 0.41 0.72 0.24 2.16 -0.41z m125.80 -15.94 c4.76 -0.86 9.32 -2.47 11.35 -4.01 1.61 -1.23 9.29 -9.08 13.64 -14.02 4.87 -5.45 12.55 -17 14.16 -21.18 0.86 -2.33 2.13 -7.54 2.16 -8.84 0 -0.65 -0.34 -0.75 -4.08 -1.27 -7.40 -1.06 -12.82 -2.81 -20.33 -6.62 -13.95 -7.03 -25.74 -17.62 -33.21 -29.86 -1.06 -1.75 -1.61 -2.23 -4.80 -4.11 -4.70 -2.78 -8.19 -5.62 -13.06 -10.69 -11.89 -12.31 -19.85 -27.52 -21.18 -40.52 -0.17 -1.89 -0.34 -3.53 -0.34 -3.60 0 -0.14 -0.96 0 -4.90 0.75 -8.95 1.68 -15.77 6.03 -30.16 19.30 -3.26 3.02 -5.86 5.07 -7.30 5.86 -2.09 1.13 -2.33 1.37 -3.12 3.26 -1.23 3.05 -3.05 9.84 -3.84 14.57 -1.58 9.22 -0.72 13.85 4.46 24.75 1.47 3.12 2.71 5.86 2.71 6.10 0 0.55 5.59 6.27 8.57 8.74 5.90 4.90 11.41 8.74 15.18 10.59 3.56 1.75 9.08 3.80 12.44 4.66 2.91 0.72 3.36 1.47 4.42 7.20 0.82 4.46 3.87 10.32 7.61 14.64 1.58 1.85 3.91 4.83 5.18 6.62 5.69 8.02 11.48 12.13 22.52 15.94 6.65 2.26 8.50 2.61 13.88 2.43 2.74 -0.10 6.38 -0.41 8.06 -0.69z m-89.53 -2.98 c3.87 -0.34 6.72 -1.20 8.33 -2.43 1.20 -0.96 3.60 -4.66 6.10 -9.43 3.15 -6.10 6.68 -8.91 13.40 -10.76 1.51 -0.38 2.78 -0.79 2.85 -0.82 0.07 -0.07 -0.21 -0.75 -0.62 -1.58 -1.34 -2.54 -2.43 -5.83 -3.12 -9.19 -0.38 -1.82 -0.79 -3.39 -0.93 -3.53 -0.14 -0.14 -1.65 -0.65 -3.32 -1.13 -1.71 -0.48 -5.04 -1.71 -7.44 -2.71 l-4.39 -1.82 0 0.99 c0 1.75 -0.99 5.11 -2.33 7.78 -1.92 3.91 -4.22 6.07 -9.01 8.40 -4.28 2.06 -7.61 4.11 -8.77 5.38 -2.06 2.26 -2.98 5.96 -3.32 13.44 -0.21 3.60 -0.14 4.01 0.38 4.01 1.10 0 1.82 1.06 1.82 2.64 l0 1.51 3.36 -0.21 c1.82 -0.10 5 -0.34 7.03 -0.55z m260.13 -14.16 c4.83 -1.68 9.97 -5.72 13.40 -10.52 2.85 -4.01 4.32 -8.26 5.21 -14.98 1.23 -9.25 0.24 -19.30 -3.29 -33.32 -2.57 -10.28 -3.05 -13.64 -3.05 -21.46 0 -8.19 0.69 -14.91 2.30 -22.76 2.43 -11.79 1.47 -19.26 -3.87 -29.89 -2.33 -4.63 -5.83 -10.04 -7.71 -11.93 -2.64 -2.64 -7.78 -5.79 -16.08 -9.91 -11.72 -5.79 -19.40 -11.45 -21.66 -16.04 -1.10 -2.26 -1.13 -2.40 -1.13 -6.96 0 -4.56 0.03 -4.70 1.13 -6.92 1.30 -2.64 3.08 -4.35 5.96 -5.69 l1.95 -0.89 0.10 -1.71 0.10 -1.68 4.28 -2.64 c2.37 -1.41 7.13 -4.49 10.63 -6.79 5.55 -3.70 6.48 -4.18 7.75 -4.18 0.86 0 1.68 0.21 1.99 0.55 0.62 0.58 0.72 2.61 0.21 3.53 -0.27 0.58 -9.32 6.79 -14.88 10.21 -1.75 1.10 -2.16 1.44 -1.41 1.30 9.63 -2.09 17.21 -6 23.55 -12.10 8.57 -8.26 13.27 -18.20 13.85 -29.55 0.34 -6.10 -0.79 -11.52 -3.63 -17.69 -4.66 -10.11 -15.18 -19.02 -26.15 -22.21 -10.18 -2.95 -21.22 -1.27 -31.26 4.76 -9.56 5.72 -15.53 12.82 -19.71 23.31 -1.17 2.95 -2.54 7.68 -2.09 7.16 0.17 -0.17 2.47 -3.56 5.14 -7.58 2.64 -4.01 5.11 -7.44 5.48 -7.64 0.86 -0.45 2.30 -0.45 3.15 0 0.51 0.31 0.65 0.75 0.65 2.30 0 1.89 -0.03 1.95 -5.69 10.49 -6.62 10.01 -8.91 13.06 -11.65 15.70 -4.59 4.32 -7.71 5.62 -13.30 5.38 -4.73 -0.17 -7.06 -1.23 -10.76 -4.97 -4.46 -4.49 -11.41 -15.60 -15.53 -24.85 -1.89 -4.25 -3.87 -7.23 -6.34 -9.53 -5.83 -5.42 -15.08 -9.73 -24.30 -11.31 -7.10 -1.20 -15.94 -0.75 -21.59 1.10 -2.37 0.79 -2.64 0.79 -17.48 0.79 l-15.08 -0.03 -6.17 -1.78 c-11.69 -3.43 -18.34 -4.35 -28.55 -4.08 -9.39 0.24 -16.14 1.75 -20.57 4.56 -5.76 3.70 -13.47 14.33 -13.44 18.58 0.03 2.61 2.09 5.07 9.67 11.45 6.03 5.11 9.87 9.70 12.99 15.53 2.23 4.18 3.32 5.66 4.18 5.66 1.17 0 2.74 1.13 6.86 4.90 8.95 8.19 11.83 10.49 22.52 17.96 7.40 5.14 15.60 10.76 16.35 11.21 0.24 0.14 0.82 -0.55 1.51 -1.75 2.19 -3.91 6.07 -9.60 8.84 -13.06 1.85 -2.30 2.78 -3.70 2.64 -4.04 -0.65 -1.65 -4.15 -6 -7.34 -9.12 -3.46 -3.36 -7.75 -6.72 -19.30 -15.15 -2.78 -1.99 -5.14 -3.87 -5.24 -4.18 -0.10 -0.31 -0.21 -1.30 -0.21 -2.19 0 -2.13 0.75 -2.74 3.39 -2.74 1.51 0 3.02 0.48 8.23 2.57 14.91 5.96 21.53 7.47 32.60 7.47 7.27 0 9.36 -0.31 15.29 -2.19 3.36 -1.06 7.20 -1.34 7.95 -0.58 0.24 0.24 0.41 1.20 0.41 2.19 0 2.13 -0.48 2.78 -3.70 5.31 -23.69 18.65 -29.62 24.47 -37.05 36.40 -1.37 2.16 -2.98 5.18 -3.63 6.68 -0.62 1.51 -1.99 4.15 -3.02 5.83 -1.10 1.82 -2.23 4.35 -2.78 6.14 -1.41 4.49 -1.89 5.45 -4.18 8.67 l-2.09 2.91 -0.21 3.12 c-0.45 7.30 -3.29 13.27 -8.06 16.90 -2.19 1.68 -6.68 3.98 -8.88 4.56 -0.82 0.21 -1.47 0.55 -1.47 0.82 0 0.93 2.50 8.67 3.94 12.17 2.98 7.27 7.10 14.77 10.90 19.78 4.87 6.48 12.37 12.61 18.20 14.84 1.51 0.58 3.12 1.27 3.50 1.51 0.41 0.27 1.37 1.99 2.23 4.01 2.61 6.17 7.23 12.17 12.92 16.76 6.44 5.21 16.14 10.66 24.27 13.61 4.32 1.58 10.59 3.29 11.07 3.02 0.17 -0.10 0.41 -0.72 0.51 -1.37 0.45 -2.43 2.95 -6.72 5.42 -9.32 4.42 -4.66 7.64 -6.24 13.37 -6.65 l3.63 -0.24 4.42 -2.33 c2.40 -1.27 6.10 -2.91 8.23 -3.63 8.54 -2.95 19.92 -9.39 30.44 -17.28 3.98 -2.95 10.18 -9.32 13.71 -14.05 1.68 -2.26 4.63 -6.03 6.51 -8.40 1.92 -2.37 4.22 -5.28 5.11 -6.51 2.47 -3.29 3.12 -3.77 5.28 -3.77 2.54 0 3.15 0.69 3.15 3.60 0 1.23 -0.31 3.60 -0.65 5.24 -1.27 5.79 -1.58 9.05 -1.58 16.86 0.03 7.06 0.10 8.09 0.93 12 1.13 5.21 3.05 10.87 5.76 17.04 2.33 5.24 2.91 7.20 2.61 8.74 -0.34 1.71 -0.79 1.99 -3.02 1.99 -1.99 0 -2.06 -0.03 -3.67 -1.71 -0.89 -0.93 -3.02 -3.67 -4.70 -6.03 -4.56 -6.51 -8.09 -10.80 -12.65 -15.53 -4.32 -4.46 -5.90 -5.72 -8.36 -6.68 l-1.47 -0.58 -2.64 2.02 c-2.95 2.26 -10.11 7.16 -13.30 9.15 -1.20 0.72 -2.16 1.44 -2.16 1.61 0 0.38 11.41 16.76 15.63 22.45 2.95 3.98 4.76 6.17 11.28 13.47 4.80 5.38 6 6.92 7.27 9.19 0.93 1.61 1.44 2.06 5 4.15 8.09 4.80 14.29 10.32 21.83 19.33 1.41 1.68 2.61 2.78 3.26 2.98 1.47 0.45 4.39 0.10 7.10 -0.82z m-54.16 -36.85 c-3.39 -3.91 -6.79 -8.43 -12.41 -16.49 -2.71 -3.87 -6.14 -8.74 -7.64 -10.87 l-2.71 -3.84 -1.10 0.45 c-0.58 0.27 -2.23 1.03 -3.63 1.68 -1.41 0.65 -4.42 1.85 -6.65 2.61 -3.32 1.17 -4.39 1.68 -5.66 2.88 -0.86 0.79 -3.32 2.37 -5.42 3.46 -2.13 1.13 -3.80 2.09 -3.74 2.16 0.07 0.07 2.09 0.58 4.49 1.13 10.52 2.43 27.04 9.25 42.50 17.58 2.26 1.20 4.18 2.16 4.22 2.13 0.07 -0.07 -0.96 -1.37 -2.26 -2.88z m-73.42 -0.93 c0.51 -1.30 0.45 -1.47 -0.58 -1.71 -13.16 -2.88 -27.22 -9.46 -36.81 -17.21 -3.50 -2.81 -8.67 -8.30 -10.69 -11.35 -0.93 -1.34 -2.40 -4.04 -3.32 -6 -0.93 -1.95 -1.89 -3.70 -2.13 -3.84 -0.24 -0.17 -1.61 -0.79 -3.02 -1.37 -10.56 -4.35 -19.54 -14.12 -27.11 -29.41 -2.98 -6.03 -6.20 -14.84 -7.16 -19.50 -0.38 -1.82 -0.48 -1.95 -1.13 -1.75 -1.51 0.45 -1.65 0.82 -1.27 3.91 1.27 10.21 6.96 22.45 15.25 32.73 2.95 3.63 10.90 11.45 13.54 13.30 1.03 0.72 3.39 2.26 5.28 3.43 3.26 2.06 3.46 2.23 5.24 5.21 1.03 1.71 2.74 4.25 3.80 5.66 2.40 3.15 8.91 9.73 12.55 12.61 9.25 7.40 21.56 13.57 30.54 15.29 6 1.13 6.62 1.17 7.03 0z m95.60 -36.81 c-1.58 -6.10 -1.82 -8.67 -1.82 -18.51 0.03 -5.18 0.21 -10.42 0.38 -11.65 0.21 -1.23 0.34 -2.26 0.31 -2.30 -0.10 -0.14 -5.52 6.62 -8.26 10.35 -1.68 2.26 -4.04 5.14 -5.24 6.44 -1.23 1.27 -2.16 2.33 -2.09 2.40 0.07 0.03 0.93 0.45 1.85 0.89 1.89 0.96 9.32 7.99 13.09 12.48 1.27 1.44 2.30 2.61 2.37 2.57 0.03 -0.07 -0.24 -1.27 -0.58 -2.67z m-168.10 -83.64 c0.99 -1.82 2.61 -4.35 3.60 -5.66 0.96 -1.34 1.89 -3.02 2.09 -3.77 0.93 -3.70 1.89 -6.17 3.43 -8.74 0.93 -1.54 1.61 -2.95 1.51 -3.08 -0.10 -0.17 -3.94 -2.88 -8.50 -6.03 -12.85 -8.88 -19.40 -13.57 -22.62 -16.21 l-2.95 -2.47 1.20 2.16 c2.37 4.11 6.58 12.82 9.53 19.61 6.14 14.02 8.47 20.63 9.63 27.46 0.21 1.30 0.27 1.34 0.75 0.69 0.27 -0.38 1.30 -2.16 2.33 -3.94z m184.96 -27.56 c1.58 -1.47 2.57 -2.61 2.19 -2.47 -0.38 0.10 -1.51 0.34 -2.54 0.55 -1.03 0.21 -1.89 0.38 -1.92 0.45 -0.03 0.03 -0.34 0.93 -0.69 1.95 -0.34 1.03 -0.69 2.09 -0.79 2.37 -0.31 0.79 0.62 0.07 3.74 -2.85z m27.28 -13.57 c5.62 -1.82 7.47 -2.64 8.43 -3.70 0.58 -0.65 0.58 -0.69 -0.24 -1.37 -0.48 -0.38 -1.89 -0.96 -3.12 -1.27 l-2.26 -0.62 -1.06 1.34 c-0.58 0.72 -2.47 2.67 -4.15 4.35 -1.71 1.65 -3.05 2.98 -2.95 2.98 0.07 0 2.47 -0.75 5.35 -1.71z m-177.73 -11.69 c1.92 -1.68 5.79 -4.97 8.67 -7.27 l5.18 -4.22 -7.82 0.14 c-10.90 0.21 -18.13 -0.69 -25.78 -3.12 -1.47 -0.48 -2.57 -0.75 -2.40 -0.62 0.17 0.14 1.92 1.47 3.91 2.98 4.46 3.32 10.18 9.01 12.68 12.58 1.03 1.44 1.92 2.64 1.99 2.64 0.07 0 1.68 -1.41 3.56 -3.12z m94.81 -27.39 c1.61 -0.38 1.78 -0.48 1.78 -1.30 0 -0.51 0.24 -1.78 0.51 -2.81 0.27 -1.03 0.51 -1.92 0.51 -1.99 0 -0.21 -5.66 5.83 -5.96 6.38 -0.24 0.41 -0.14 0.48 0.51 0.31 0.48 -0.14 1.65 -0.38 2.64 -0.58z m19.64 -31.84 l1.23 -0.82 -1.17 -2.78 c-0.65 -1.54 -1.37 -2.98 -1.61 -3.22 -0.89 -0.89 -1.85 0.93 -4.11 7.68 l-2.19 6.65 3.29 -3.36 c1.82 -1.82 3.87 -3.70 4.56 -4.15z"/>
 </g>
 <g fill="none" stroke="#c5c5c5" stroke-width="0.343">
  <path d="M0 175.50 l0 -175.50 175.50 0 175.50 0 0 175.50 0 175.50 -175.50 0 -175.50 0 0 -175.50z m24.27 159.77 c6.34 -3.19 20.29 -6.55 34.17 -8.23 11.55 -1.41 18.72 -1.78 37.05 -1.99 27.97 -0.31 46.48 0.69 72.05 3.87 13.44 1.65 19.09 2.09 31.84 2.61 15.60 0.58 35.58 -0.21 50.28 -1.99 13.92 -1.68 28.04 -5.24 36.47 -9.22 8.81 -4.15 13.81 -8.40 16.80 -14.19 1.65 -3.15 2.16 -4.73 2.43 -7.23 l0.21 -1.85 2.74 -0.07 c6.68 -0.17 13.13 -3.39 18.82 -9.43 5.96 -6.34 8.57 -13.81 9.01 -26.02 0.34 -9.22 -0.72 -17.76 -3.84 -30.34 -2.61 -10.69 -2.91 -12.72 -2.91 -19.74 0 -7.78 0.41 -11.96 2.09 -20.36 1.58 -8.12 1.92 -12.03 1.37 -17.14 -0.86 -8.23 -3.22 -14.53 -8.71 -23.48 -4.59 -7.47 -8.06 -10.21 -21.11 -16.80 -8.40 -4.22 -12.68 -6.82 -16.69 -10.21 -4.35 -3.67 -5.48 -5.86 -5.21 -10.18 0.17 -2.74 0.99 -4.56 2.74 -6.24 1.03 -0.99 4.04 -2.64 4.32 -2.33 0.07 0.03 -0.14 0.93 -0.41 1.92 -0.69 2.23 -0.69 4.83 -0.07 6.07 0.65 1.23 2.23 2.67 3.39 3.12 1.23 0.48 4.73 0.48 5.96 0 0.51 -0.21 2.50 -1.85 4.39 -3.70 4.22 -4.11 5.38 -4.90 11.55 -7.95 3.53 -1.71 7.44 -3.19 13.92 -5.31 9.67 -3.15 11.45 -4.04 13.27 -6.62 1.34 -1.92 1.61 -5.07 0.58 -7.10 -1.41 -2.71 -3.84 -4.32 -7.95 -5.28 -1.03 -0.24 -1.99 -0.48 -2.09 -0.55 -0.14 -0.07 0.27 -1.10 0.89 -2.26 3.94 -7.51 5.83 -19.20 4.52 -27.87 -2.33 -15.18 -13.06 -28.18 -28.18 -34.21 -4.76 -1.89 -9.08 -2.64 -15.39 -2.64 -7.92 0 -14.50 1.47 -20.87 4.66 -1.65 0.86 -2.37 1.06 -2.47 0.75 -1.99 -5.76 -3.15 -7.85 -5.04 -9.12 -1.23 -0.79 -1.78 -0.93 -3.84 -0.93 -2.81 0.03 -4.63 0.79 -6.27 2.71 -1.20 1.34 -1.92 3.08 -3.87 9.63 -1.99 6.51 -3.80 11.28 -5.93 15.60 -2.57 5.11 -4.28 7.51 -8.33 11.65 -3.80 3.94 -4.52 5.35 -4.11 8.06 0.69 4.32 4.76 6.24 10.25 4.80 1.10 -0.27 2.06 -0.51 2.13 -0.51 0.10 0 0.17 0.45 0.17 0.99 0 1.54 -2.61 4.22 -5.55 5.69 -4.90 2.43 -9.08 1.41 -13.57 -3.43 -4.32 -4.63 -8.67 -11.69 -13.88 -22.45 -3.26 -6.75 -5.24 -9.67 -8.54 -12.41 -5.72 -4.83 -14.64 -9.05 -22.55 -10.69 -7.85 -1.65 -19.16 -1.47 -25.74 0.34 -3.02 0.82 -3.94 0.93 -14.53 1.23 -13.30 0.38 -14.43 0.27 -22.83 -2.09 -11.72 -3.29 -16.59 -3.98 -27.90 -3.94 -9.60 0 -13.88 0.58 -19.85 2.57 -4.08 1.37 -6.68 3.08 -10.39 6.92 -6.79 7.06 -9.70 12.48 -9.70 18.17 0 2.30 0 2.30 -0.96 2.30 -0.55 0 -1.82 0.24 -2.85 0.55 -7.06 2.09 -13.71 8.47 -18.78 18 -3.91 7.34 -7.92 23.31 -9.94 39.56 -1.89 14.91 -1.85 14.57 -1.95 38.56 -0.07 20.77 0 23.14 0.58 26.74 1.61 10.15 2.78 21.08 4.76 44.39 2.13 25.33 1.75 54.30 -1.06 79.18 -0.82 7.27 -1.68 11.62 -4.25 20.98 -2.16 7.92 -2.71 9.43 -4.42 12.27 -1.41 2.33 -1.54 3.77 -0.55 5.07 0.96 1.20 2.78 1.75 5.14 1.51 l1.95 -0.21 -0.34 1.47 c-0.45 1.99 -0.03 3.87 1.03 4.87 1.37 1.27 3.29 1.13 6.55 -0.51z"/>
  <path d="M19.54 332.49 c0 -2.16 1.27 -4.56 3.77 -7.03 l2.43 -2.40 1.95 0 c2.50 0 3.32 -0.58 5.69 -3.91 2.33 -3.32 5.28 -6.03 7.95 -7.30 1.92 -0.89 2.71 -1.03 8.91 -1.47 9.67 -0.72 12.03 -1.44 14.94 -4.56 1.95 -2.06 3.32 -4.22 5.79 -8.95 2.95 -5.69 5.90 -8.02 12.03 -9.60 5.07 -1.30 4.18 -1.78 10.11 5.62 5.48 6.86 7.78 9.25 11 11.41 4.52 3.08 13.13 6.79 19.78 8.50 3.43 0.89 4.28 0.99 9.43 0.96 9.36 -0.03 15.42 -1.30 23.65 -4.97 4.39 -1.99 12.85 -5.35 23.58 -9.43 12.55 -4.76 19.71 -6.07 33.66 -6.07 8.23 0 11.83 0.34 20.84 2.06 5.18 0.96 5.96 0.93 6.17 -0.48 0.17 -1.03 -0.55 -1.41 -4.25 -2.16 -13.85 -2.88 -30.47 -3.15 -42.78 -0.65 -4.01 0.79 -14.29 4.25 -23.79 7.95 -3.63 1.44 -6.96 2.71 -7.37 2.85 -0.45 0.14 0.93 -1.51 3.22 -3.91 6.62 -6.82 12.55 -14.74 17.24 -22.90 2.02 -3.53 2.71 -5.62 3.98 -11.79 1.10 -5.18 1.89 -7.99 3.05 -10.69 0.58 -1.37 0.89 -1.68 2.02 -2.02 1.92 -0.55 2.88 -1.61 4.49 -4.70 0.89 -1.68 2.16 -3.39 3.43 -4.66 l2.02 -1.99 4.39 0.75 c11.72 2.02 21.35 5.52 39.04 14.23 13.13 6.48 20.40 10.63 26.22 14.98 1.61 1.17 4.25 2.91 5.86 3.80 6.65 3.74 13.09 9.29 19.88 17.14 l4.49 5.18 -0.17 2.37 c-0.31 4.49 -3.98 10.35 -8.67 13.88 -11.76 8.81 -33.08 14.09 -64.03 15.84 -3.36 0.17 -11.62 0.34 -18.34 0.34 -16.97 0 -25.88 -0.55 -42.20 -2.57 -38.87 -4.87 -79.69 -5.59 -110.61 -2.06 -13.47 1.58 -29.27 5.31 -35.48 8.43 -2.61 1.30 -3.36 1.30 -3.36 -0.03z"/>
  <path d="M13.13 326.63 c-0.96 -0.34 -0.96 -0.55 -0.07 -1.85 1.41 -2.09 2.30 -4.22 3.32 -7.88 2.71 -9.70 4.22 -15.66 4.70 -18.30 1.17 -6.68 2.64 -23.93 3.26 -38.42 0.82 -19.26 0.24 -35.99 -2.23 -62.73 -0.45 -5 -0.99 -11 -1.20 -13.37 -0.34 -4.08 -2.13 -17.14 -2.71 -20.05 -0.45 -1.99 -0.45 -41.27 0 -46.96 0.41 -5.83 1.75 -17 2.88 -24.06 2.30 -14.33 5.69 -25.64 9.60 -32.19 5.11 -8.47 10.66 -13.33 16.97 -14.74 l2.43 -0.55 2.47 2.54 c1.37 1.41 4.25 4.08 6.48 5.90 6.55 5.42 10.42 10.08 14.05 16.86 1.03 1.92 2.57 4.39 3.43 5.48 4.04 5.28 10.52 15.84 13.99 22.76 5.35 10.69 12.41 27.80 14.09 34.14 0.89 3.32 1.10 4.97 1.23 8.91 l0.17 4.80 -3.19 2.74 c-6.44 5.52 -11.17 8.57 -15.22 9.84 -0.93 0.31 -3.50 0.86 -5.66 1.27 -11.17 2.02 -17.55 5.86 -32.73 19.68 -2.81 2.57 -5.24 4.66 -5.38 4.66 -0.14 0 0.07 -0.72 0.45 -1.61 0.38 -0.93 1.89 -4.66 3.29 -8.33 7.47 -19.40 8.02 -21.53 8.67 -34.72 0.51 -10.42 -0.17 -20.09 -2.06 -29.44 -0.41 -1.92 -0.99 -3.80 -1.27 -4.11 -0.69 -0.75 -1.58 -0.79 -2.19 -0.07 -0.34 0.45 -0.24 1.51 0.65 6.24 1.61 8.57 1.92 11.79 1.92 20.63 0 9.84 -0.55 16.04 -1.89 21.25 -1.13 4.32 -6.20 18.13 -10.01 27.08 -4.46 10.59 -5.35 12.85 -6.24 15.90 -1.34 4.73 -2.26 10.21 -2.47 15.15 -0.34 7.61 0.86 13.06 4.49 20.53 1.20 2.47 2.71 5.55 3.32 6.86 0.93 1.95 1.89 3.15 5.28 6.51 2.26 2.26 6.31 5.76 8.91 7.75 l4.80 3.60 0.10 2.50 c0.10 2.85 -0.48 5.28 -2.02 8.36 -1.68 3.26 -3.32 4.80 -7.47 6.79 -4.52 2.19 -8.91 5.07 -10.04 6.55 -2.43 3.19 -3.26 6.20 -3.70 13.30 -0.17 2.91 -0.62 6.68 -0.99 8.40 -0.62 2.98 -0.65 3.08 -2.43 4.63 -0.99 0.86 -3.12 2.54 -4.73 3.77 -3.77 2.88 -4.32 3.63 -4.42 6.07 -0.07 1.92 -0.10 1.95 -2.57 4.46 -2.43 2.43 -3.84 3.26 -6.27 3.63 -0.55 0.10 -1.37 0.03 -1.78 -0.14z"/>
  <path d="M27.11 319.67 c-0.96 -1.13 -0.10 -2.13 5.35 -6.41 2.95 -2.33 6.14 -4.73 7.10 -5.31 1.34 -0.79 1.78 -1.27 1.85 -1.99 0.14 -1.17 -0.75 -2.26 -1.92 -2.26 -0.75 0 -0.82 -0.10 -0.62 -1.10 0.10 -0.62 0.34 -3.60 0.55 -6.62 0.65 -10.63 1.82 -12.27 12.17 -17.28 2.91 -1.44 4.18 -2.26 5.66 -3.77 3.02 -3.12 5.48 -8.84 5.48 -12.85 0 -0.86 0.07 -1.58 0.14 -1.58 0.07 0 0.79 0.38 1.61 0.82 2.30 1.30 8.74 3.84 12.17 4.83 1.68 0.48 3.15 0.99 3.29 1.13 0.14 0.14 0.55 1.75 0.93 3.56 0.82 3.91 2.30 7.92 3.98 10.69 0.75 1.23 1.03 1.99 0.75 2.06 -0.24 0.07 -1.78 0.41 -3.43 0.82 -6.86 1.65 -10.56 4.56 -13.81 10.80 -2.50 4.76 -4.90 8.47 -6.10 9.43 -1.78 1.37 -4.52 2.13 -9.25 2.50 -9.67 0.72 -10.69 0.89 -12.96 1.99 -3.12 1.51 -5.83 3.87 -8.64 7.58 -2.50 3.29 -3.46 3.94 -4.28 2.95z"/>
  <path d="M125.28 310.07 c-7.20 -1.92 -14.36 -4.94 -18.82 -7.88 -3.32 -2.23 -6.34 -5.35 -9.53 -9.80 -1.27 -1.78 -3.60 -4.76 -5.18 -6.62 -3.74 -4.32 -6.79 -10.18 -7.61 -14.64 -1.06 -5.72 -1.51 -6.48 -4.42 -7.20 -3.36 -0.86 -8.88 -2.91 -12.44 -4.66 -3.77 -1.85 -9.29 -5.69 -15.18 -10.59 -2.98 -2.47 -8.57 -8.19 -8.57 -8.74 0 -0.24 -1.23 -2.98 -2.71 -6.10 -4.15 -8.71 -5.18 -12.48 -5.18 -18.85 0 -6.03 2.16 -16.66 4.56 -22.52 0.79 -1.89 1.03 -2.13 3.12 -3.26 1.44 -0.79 4.04 -2.85 7.30 -5.86 13.03 -11.96 19.02 -16.14 26.70 -18.48 2.09 -0.62 10.11 -2.13 10.32 -1.95 0.03 0.07 0.24 1.75 0.45 3.77 1.34 13.16 9.22 28.31 21.18 40.72 4.87 5.07 8.36 7.92 13.06 10.69 3.19 1.89 3.74 2.33 4.80 4.15 6.86 11.24 18.13 21.70 30.88 28.66 8.60 4.66 16.35 7.20 24.78 8.06 1.92 0.21 2.30 0.34 2.30 0.89 0 1.51 -1.51 8.19 -2.37 10.59 -1.65 4.46 -9.19 15.87 -14.29 21.59 -4.35 4.94 -12.03 12.79 -13.64 14.02 -3.60 2.74 -11.11 4.49 -20.43 4.70 -5.52 0.14 -6.24 0.07 -9.08 -0.69z"/>
  <path d="M304.90 293.76 c-0.65 -0.21 -1.85 -1.30 -3.26 -2.98 -7.54 -9.01 -13.75 -14.53 -21.83 -19.33 -3.56 -2.09 -4.08 -2.54 -5 -4.15 -1.27 -2.26 -2.47 -3.80 -7.27 -9.19 -5.86 -6.58 -8.06 -9.19 -10.32 -12.17 -3.02 -3.98 -17.62 -24.85 -17.62 -25.19 0 -0.14 1.20 -1.03 2.67 -1.92 4.01 -2.50 10.87 -7.20 14.05 -9.67 l2.88 -2.19 2.23 0.72 c3.08 1.03 4.42 2.06 9.19 6.92 4.56 4.73 8.09 9.01 12.65 15.53 1.68 2.37 3.80 5.11 4.73 6.07 1.41 1.47 1.82 1.71 2.74 1.61 1.44 -0.14 2.06 -1.23 1.58 -2.91 -0.17 -0.65 -1.23 -3.26 -2.33 -5.76 -2.71 -6.10 -4.63 -11.79 -5.69 -16.80 -1.51 -7.10 -1.51 -20.12 0 -28.11 1.34 -6.99 1.37 -7.37 1.03 -8.30 -0.41 -1.23 -1.85 -1.78 -3.05 -1.13 -0.48 0.24 -1.75 1.65 -2.81 3.05 -1.06 1.44 -3.50 4.52 -5.42 6.89 -1.89 2.37 -4.83 6.14 -6.51 8.40 -3.53 4.73 -9.73 11.11 -13.71 14.05 -10.52 7.88 -21.90 14.33 -30.44 17.28 -2.13 0.72 -5.83 2.37 -8.23 3.63 l-4.42 2.33 -3.63 0.24 c-2.26 0.17 -4.32 0.51 -5.42 0.93 -5.79 2.23 -11.52 8.67 -13.33 14.94 -0.41 1.37 -0.72 1.95 -1.13 1.95 -1.20 0 -8.81 -2.13 -12.51 -3.46 -8.16 -2.98 -17.82 -8.40 -24.30 -13.64 -5.69 -4.59 -10.32 -10.59 -12.92 -16.76 -0.86 -2.02 -1.82 -3.74 -2.23 -4.01 -0.38 -0.24 -1.99 -0.93 -3.50 -1.51 -5.83 -2.23 -13.33 -8.36 -18.20 -14.84 -3.80 -5 -7.92 -12.51 -10.90 -19.78 -1.82 -4.46 -3.91 -11.21 -4.01 -13.09 l-0.10 -1.41 2.23 -0.75 c10.32 -3.56 16.04 -10.97 16.28 -21.15 l0.07 -2.91 2.19 -3.08 c2.40 -3.36 2.85 -4.28 4.28 -8.81 0.55 -1.78 1.68 -4.32 2.78 -6.14 1.03 -1.68 2.40 -4.32 3.02 -5.83 1.37 -3.22 5.07 -9.25 8.67 -14.12 4.32 -5.79 13.44 -14.29 25.61 -23.86 8.06 -6.34 9.56 -7.64 9.94 -8.71 0.82 -2.33 -1.37 -2.78 -6.07 -1.27 -6.17 1.95 -8.30 2.26 -16.56 2.23 -12.03 -0.03 -18.27 -1.44 -33.45 -7.51 -3.50 -1.41 -6.75 -2.57 -7.20 -2.57 -1.75 0 -2.74 1.34 -2.16 2.88 0.10 0.31 2.47 2.19 5.24 4.18 18.51 13.51 22.25 16.93 27.18 25.13 0.48 0.82 0.41 0.96 -2.40 4.28 -3.12 3.74 -7.75 10.52 -9.87 14.50 -0.75 1.37 -1.47 2.43 -1.68 2.37 -0.41 -0.14 -7.64 -5.11 -18 -12.31 -10.69 -7.47 -13.57 -9.77 -22.52 -17.96 -4.11 -3.77 -5.69 -4.90 -6.86 -4.90 -0.86 0 -1.95 -1.47 -4.18 -5.66 -3.12 -5.83 -6.96 -10.42 -12.99 -15.53 -5.76 -4.87 -8.19 -7.34 -8.98 -9.08 -0.93 -1.99 -0.89 -4.83 0.10 -7.51 1.65 -4.59 8.30 -12.68 12.65 -15.49 2.33 -1.47 6.82 -3.02 11.07 -3.84 4.04 -0.75 16.66 -1.03 21.87 -0.51 5.35 0.55 11 1.75 18.24 3.87 l6.17 1.78 14.05 0.03 c13.75 0 14.09 0 16.45 -0.79 5.72 -1.89 16.18 -2.37 23.65 -1.10 9.22 1.58 18.48 5.90 24.30 11.31 2.47 2.30 4.46 5.28 6.34 9.53 0.93 2.09 2.95 6.10 4.49 8.88 6.07 10.93 11.45 17.58 15.97 19.71 7.03 3.29 14.19 0.34 21.05 -8.67 3.91 -5.07 13.37 -19.71 13.37 -20.63 0 -1.06 -0.96 -1.71 -1.82 -1.23 -0.31 0.21 -3.36 4.49 -6.79 9.56 -3.39 5.07 -6.31 9.32 -6.51 9.43 -0.96 0.62 0.51 -6.89 2.33 -11.83 4.39 -11.83 11.55 -20.02 22.73 -25.98 11.14 -5.96 25.47 -6.38 36.51 -1.10 8.88 4.25 16.62 11.83 20.40 20.02 2.98 6.41 3.94 11.45 3.67 18.72 -0.51 12.17 -4.97 21.97 -13.88 30.58 -7.27 7.03 -16.14 11.11 -27.70 12.79 -4.42 0.62 -6.89 1.47 -9.15 3.12 -4.59 3.32 -6.10 10.52 -3.36 16.04 2.23 4.56 9.94 10.25 21.63 16.01 8.30 4.11 13.44 7.27 16.08 9.91 1.89 1.89 5.38 7.30 7.71 11.93 3.94 7.85 5.11 12.58 5.11 20.63 0 4.80 -0.10 5.90 -1.23 11.31 -1.54 7.54 -2.30 14.50 -2.30 21.73 0 6.65 0.58 10.56 3.05 20.43 2.74 10.87 3.80 18.27 3.80 26.63 0 7.82 -1.13 14.74 -3.26 19.50 -2.78 6.27 -9.56 12.55 -16.01 14.77 -2.74 0.96 -7.23 1.34 -9.01 0.79z m-11.83 -195.45 c5.59 -3.39 16.83 -11 17.14 -11.62 0.45 -0.79 0.10 -1.61 -0.72 -1.85 -0.79 -0.27 -0.17 -0.62 -7.51 4.25 -3.29 2.16 -7.92 5.14 -10.28 6.58 -3.22 1.95 -4.32 2.78 -4.39 3.39 -0.31 1.95 1.75 1.68 5.76 -0.75z"/>
  <path d="M266.51 262.67 c-3.98 -2.40 -15.49 -8.43 -22.49 -11.76 -8.64 -4.15 -15.70 -7.10 -21.73 -9.12 -4.59 -1.54 -12.61 -3.56 -14.23 -3.56 -2.71 -0.03 -1.68 -0.96 4.94 -4.52 2.09 -1.13 4.42 -2.64 5.18 -3.36 1.10 -1.06 2.19 -1.61 5.38 -2.71 3.91 -1.37 4.87 -1.75 10.32 -4.28 l2.67 -1.23 2.54 3.53 c1.41 1.92 4.97 6.96 7.92 11.21 7.99 11.45 11.04 15.32 18.10 23.07 2.02 2.19 3.63 4.01 3.56 4.01 -0.07 -0.03 -1.03 -0.58 -2.16 -1.27z"/>
  <path d="M182.70 256.02 c-6.17 -0.69 -11.24 -2.13 -17.45 -4.90 -9.67 -4.35 -17.52 -9.77 -25.06 -17.34 -4.35 -4.39 -6.86 -7.54 -9.70 -12.17 -1.78 -2.98 -1.99 -3.15 -5.24 -5.21 -1.89 -1.17 -4.25 -2.71 -5.28 -3.43 -2.64 -1.85 -10.59 -9.67 -13.54 -13.30 -8.64 -10.69 -14.19 -22.93 -15.32 -33.69 -0.34 -3.29 -0.34 -3.91 0.10 -4.32 0.51 -0.48 3.70 -1.75 3.87 -1.54 0.07 0.07 0.31 1.13 0.51 2.37 0.89 4.66 4.11 13.51 7.20 19.74 7.58 15.29 16.56 25.06 27.11 29.41 1.41 0.58 2.78 1.20 3.02 1.37 0.24 0.14 1.20 1.89 2.13 3.84 0.93 1.95 2.40 4.66 3.32 6 2.02 3.05 7.20 8.54 10.69 11.35 5.79 4.70 14.33 9.56 22.42 12.82 3.80 1.54 11.76 3.94 14.57 4.42 0.79 0.14 1.44 0.34 1.44 0.48 0 0.82 -1.51 4.49 -1.82 4.46 -0.24 -0.03 -1.58 -0.17 -2.98 -0.34z"/>
  <path d="M191.40 247.41 c0.69 -3.70 4.49 -8.74 8.50 -11.38 1.65 -1.06 5.59 -2.54 5.96 -2.19 0.07 0.10 -1.20 1.06 -2.81 2.16 -3.77 2.61 -7.20 6.24 -8.71 9.19 -0.99 1.99 -2.19 3.32 -2.95 3.32 -0.14 0 -0.14 -0.51 0 -1.10z"/>
  <path d="M285.36 227.88 c-3.05 -4.63 -7.51 -10.01 -12.31 -14.94 -5.24 -5.35 -7.64 -7.23 -9.91 -7.78 -0.51 -0.14 -1.03 -0.38 -1.13 -0.55 -0.10 -0.21 1.03 -1.61 2.54 -3.15 1.51 -1.54 4.18 -4.76 5.96 -7.13 3.26 -4.39 11 -14.02 11.14 -13.88 0.07 0.07 -0.14 1.54 -0.41 3.32 -0.27 1.78 -0.69 6.10 -0.93 9.63 -0.82 12.75 0.55 21.39 5.31 33.63 0.51 1.27 0.86 2.30 0.79 2.30 -0.07 0 -0.55 -0.65 -1.06 -1.44z"/>
  <path d="M103 153.84 c1.13 -0.99 3.63 -3.32 5.59 -5.24 1.92 -1.92 3.50 -3.32 3.50 -3.15 0 0.17 -0.41 1.10 -0.89 2.09 -1.54 3.12 -5.35 6.41 -8.71 7.58 l-1.54 0.51 2.06 -1.78z"/>
  <path d="M109.21 140.81 c-0.10 -0.62 -0.34 -2.30 -0.58 -3.70 -1.47 -9.77 -12.65 -35.89 -21.73 -50.90 -1.78 -2.95 -3.26 -5.45 -3.26 -5.55 0 -0.07 1.89 1.51 4.22 3.56 7.54 6.72 9.49 8.19 28.79 21.49 4.83 3.36 8.81 6.27 8.81 6.48 0 0.21 -0.93 1.92 -2.02 3.80 -1.89 3.19 -2.88 5.62 -3.80 9.29 -0.17 0.79 -0.96 2.23 -1.75 3.26 -0.75 1.03 -2.02 2.98 -2.78 4.28 -2.02 3.46 -5.52 9.08 -5.62 9.08 -0.07 0 -0.17 -0.51 -0.27 -1.10z"/>
  <path d="M293.52 110.48 c-0.65 -0.24 -0.55 -1.99 0.31 -4.63 0.72 -2.19 0.82 -2.33 1.95 -2.54 11.45 -1.92 22.83 -8.54 30.40 -17.72 l1.34 -1.61 3.19 0.99 c3.70 1.17 4.52 1.75 4.52 3.29 0 2.06 -1.23 2.78 -10.35 5.76 -13.13 4.35 -20.87 8.33 -26.46 13.61 -3.05 2.88 -3.80 3.32 -4.90 2.85z"/>
  <path d="M142.32 84.60 c-1.54 -2.67 -5.21 -7.10 -8.23 -9.87 -2.43 -2.26 -7.23 -6 -14.29 -11.14 -3.74 -2.71 -3.74 -2.71 -1.03 -1.68 9.60 3.63 17.07 5.59 24.13 6.34 5.11 0.51 16.76 0.21 20.19 -0.55 1.41 -0.31 2.64 -0.51 2.81 -0.45 0.17 0.07 -2.81 2.61 -6.62 5.66 -3.80 3.05 -8.71 7.13 -10.87 9.05 -2.16 1.92 -4.18 3.70 -4.49 3.98 -0.51 0.41 -0.69 0.27 -1.61 -1.34z"/>
  <path d="M237.71 54.81 c-0.51 -0.79 0.34 -2.26 2.91 -4.94 5.79 -6.03 9.77 -13.81 14.70 -28.66 1.17 -3.50 2.40 -6.68 2.78 -7.10 1.68 -1.78 3.26 -1.13 4.46 1.89 0.45 1.10 1.17 2.71 1.58 3.56 l0.79 1.58 -2.78 2.19 c-5.07 4.01 -9.43 9.56 -12.61 16.25 -1.82 3.80 -4.04 10.42 -4.35 12.89 l-0.21 1.61 -2.40 0.55 c-2.78 0.65 -4.56 0.69 -4.87 0.17z"/>
 </g>
</svg>